<svg width="4000" height="4000" viewBox="0 0 4000 4000" fill="none" xmlns="http://www.w3.org/2000/svg">
<g clip-path="url(#clip0_7_68)">
<path d="M4000 0H0V4000H4000V0Z" fill="#080D23"/>
<path fill-rule="evenodd" clip-rule="evenodd" d="M989.466 922.393C1018.49 920.495 1047.83 921.213 1076.95 921.213C1095.81 921.213 1115.85 919.619 1134.43 923.229C1138.8 935.409 1137.36 949.338 1137.58 962.112C1138.05 988.143 1137.85 1014.2 1137.86 1040.23C1137.89 1124.85 1138.71 1209.47 1138.56 1294.1C1138.51 1321.83 1138.22 1349.59 1138.56 1377.32C1138.78 1394.57 1138.97 1413.98 1148.87 1428.83C1178.01 1472.53 1258.07 1456.69 1262.48 1402.13C1265.58 1363.88 1262.88 1324.66 1263.04 1286.3C1263.54 1166.03 1258.48 1044.49 1265.62 924.486C1273.61 919.377 1287.98 921.518 1297.16 921.448C1322.75 921.244 1348.32 921.166 1373.9 921.807C1383.84 922.057 1399.65 918.619 1407.48 925.541C1412.85 938.08 1411 952.635 1410.86 965.987C1410.62 990.744 1410.32 1015.48 1410.3 1040.24C1410.26 1127.47 1410.19 1214.71 1410.25 1301.96C1410.27 1328.63 1409.61 1355.38 1410.34 1382.03C1410.73 1396.37 1410.93 1412.58 1418.52 1425.22C1446.12 1471.17 1528.04 1461.79 1532.61 1404.17C1536.09 1360.14 1533.71 1314.85 1533.48 1270.7C1533.12 1200.65 1533.42 1130.6 1533.5 1060.55C1533.54 1016.6 1528.66 969.752 1535.93 926.291C1546.44 917.932 1564.21 921.33 1576.95 921.284C1610.79 921.159 1648.33 917.283 1681.72 923.072C1679.08 975.815 1681.71 1030.14 1681.78 1083.14C1681.9 1179.49 1681.4 1275.85 1681.73 1372.2C1682.04 1461.68 1689.43 1553.06 1655.86 1637.93C1622.1 1723.34 1556.09 1798.81 1481.48 1851.64C1466.56 1862.2 1452.47 1873.9 1437.7 1884.68C1406.9 1907.17 1372.16 1927.35 1373.15 1969.67C1373.93 2002.6 1386.81 2037.45 1395.61 2069.01C1409.44 2118.58 1422.36 2168.38 1436.52 2217.85C1479.77 2368.86 1520.66 2520.97 1567.79 2670.81C1586.79 2731.23 1615.63 2800.6 1614.21 2864.67C1613.1 2914.78 1588.7 2963.26 1555.08 2999.46C1537.91 3017.93 1517.11 3033.03 1495.58 3045.99C1452.33 3072.01 1401.38 3078.61 1351.96 3079.89C1313.12 3080.89 1272.63 3081.46 1234.61 3072.31C1155.71 3053.31 1080.04 2992.28 1059.6 2911.6C1046.51 2859.98 1056.44 2811.1 1070.51 2760.88C1083.66 2713.88 1098.51 2667.47 1112.65 2620.78C1152.69 2488.54 1186.19 2354.36 1226.51 2222.22C1243.33 2167.1 1258.86 2111.06 1272.02 2054.95C1279.11 2024.7 1288.2 1992.88 1287.33 1961.57C1286.76 1940.92 1274.68 1928.33 1259.99 1915.18C1237.12 1894.71 1211.41 1876.42 1186.97 1857.81C1118.46 1805.64 1057.14 1737.47 1022.58 1658.03C978.045 1555.64 988.81 1442.1 989.115 1333.17C989.373 1240.71 989.045 1148.27 989.115 1055.82C989.146 1011.64 986.162 966.44 989.466 922.393Z" fill="#57DDF2"/>
<path fill-rule="evenodd" clip-rule="evenodd" d="M1595.97 2067.59C1644.74 2016.33 1697.93 1968.73 1749.94 1920.83C1790.55 1883.43 1830.19 1841.62 1878.66 1814.26C1945.75 1776.4 2032.96 1774.89 2101.05 1810.87C2176.24 1850.61 2224.65 1927.01 2287.51 1981.83C2329.4 2018.34 2377.82 2046.16 2435.3 2043.12C2504.57 2039.44 2549.62 1992.21 2597.12 1947.67C2623.39 1923.04 2651.43 1900.38 2677.19 1875.09C2720.3 1832.76 2761.3 1802.07 2824.11 1803.17C2923.39 1804.91 3004.75 1901.47 3008.33 1996.85C3009.37 2024.44 3007.55 2053.2 2993.22 2077.49C2982.26 2096.04 2962.32 2111.22 2946.66 2125.73C2914.22 2155.83 2881.01 2185.25 2847.47 2214.13C2794.95 2259.37 2747.19 2313.17 2687.88 2349.83C2589.13 2410.85 2465.55 2406.37 2367.78 2346.63C2283.54 2295.16 2223.75 2213.48 2150.2 2149.16C2103.33 2108.17 2049.61 2071.49 1985.52 2066.51C1890.44 2059.13 1825.02 2120.33 1760.96 2181.02C1735.76 2204.88 1709.19 2227.25 1684.33 2251.48C1669.3 2266.13 1655.23 2284.78 1638.63 2297.4C1632.73 2282.3 1632.05 2264.51 1628.31 2248.69C1618.74 2208.3 1608.6 2167.97 1601.4 2127.07C1598.58 2111.03 1588.47 2082.69 1595.97 2067.59Z" fill="#8E98FF"/>
<path fill-rule="evenodd" clip-rule="evenodd" d="M1841.22 922.179C1927.18 917.726 2014.23 921.07 2100.38 920.984C2264.44 920.828 2428.51 920.812 2592.58 920.812C2685.02 920.812 2777.47 920.851 2869.91 920.828C2901.16 920.82 2932.41 920.898 2963.67 921.023C2978.86 921.085 2995.76 919.226 3010.71 921.929C3014.61 971.476 3013.29 1029.37 3002.68 1078.05C2993.86 1118.54 2980.54 1158.61 2958.15 1193.78C2908.25 1272.19 2824.29 1323.15 2735.34 1345.38C2669.65 1361.8 2597.29 1354.43 2530.15 1354.48C2410.36 1354.56 2290.57 1354.52 2170.78 1354.75C2061.66 1354.96 1952.07 1358.59 1843.03 1354.59C1839.41 1351.19 1841.89 1334.63 1841.79 1329.3C1841.32 1301.95 1841.87 1274.64 1842.06 1247.3C1842.82 1139.01 1837.28 1030.42 1841.22 922.179Z" fill="#54DCF4"/>
</g>
<defs>
<clipPath id="clip0_7_68">
<rect width="4000" height="4000" fill="white"/>
</clipPath>
</defs>
</svg>
